<svg xmlns="http://www.w3.org/2000/svg" viewBox="0 0 600 600" preserveAspectRatio="xMidYMid slice"><defs><linearGradient id="sky" x2="0" y2="1"><stop stop-color="#5b4d8f"/><stop offset=".5" stop-color="#9a86c6"/><stop offset="1" stop-color="#d9cdef"/></linearGradient><radialGradient id="moon"><stop stop-color="#fff9dc" stop-opacity=".9"/><stop offset=".3" stop-color="#f3e9ff" stop-opacity=".45"/><stop offset="1" stop-color="#e8dcff" stop-opacity="0"/></radialGradient><radialGradient id="glow"><stop stop-color="#b8f5ff"/><stop offset="1" stop-color="#b8f5ff" stop-opacity="0"/></radialGradient><radialGradient id="glowp"><stop stop-color="#ffd1f5"/><stop offset="1" stop-color="#ffd1f5" stop-opacity="0"/></radialGradient></defs><path fill="url(#sky)" d="M0 0h600v600H0z"/><circle cx="440" cy="130" r="170" fill="url(#moon)"/><circle cx="440" cy="130" r="48" fill="#fff6d6"/><circle cx="424" cy="118" r="8" fill="#efe2b8" opacity=".6"/><circle cx="456" cy="146" r="11" fill="#efe2b8" opacity=".5"/><circle cx="474" cy="191" r="1.6" fill="#fffbe8" opacity="0.5"/><circle cx="190" cy="3" r="1.6" fill="#fffbe8" opacity="0.9"/><circle cx="474" cy="41" r="1.6" fill="#fffbe8" opacity="0.9"/><circle cx="41" cy="194" r="1.2" fill="#fffbe8" opacity="0.9"/><circle cx="462" cy="216" r="1.2" fill="#fffbe8" opacity="0.5"/><circle cx="243" cy="26" r="1" fill="#fffbe8" opacity="0.5"/><circle cx="518" cy="32" r="2.2" fill="#fffbe8" opacity="0.9"/><circle cx="104" cy="149" r="1.2" fill="#fffbe8" opacity="0.9"/><circle cx="229" cy="215" r="1" fill="#fffbe8" opacity="0.7"/><circle cx="214" cy="203" r="1.6" fill="#fffbe8" opacity="0.7"/><circle cx="44" cy="102" r="1" fill="#fffbe8" opacity="0.7"/><circle cx="56" cy="193" r="2.2" fill="#fffbe8" opacity="0.5"/><circle cx="24" cy="121" r="2.2" fill="#fffbe8" opacity="0.9"/><circle cx="114" cy="1" r="1" fill="#fffbe8" opacity="0.9"/><circle cx="202" cy="103" r="1.6" fill="#fffbe8" opacity="0.5"/><circle cx="85" cy="68" r="1" fill="#fffbe8" opacity="0.9"/><circle cx="86" cy="293" r="2.2" fill="#fffbe8" opacity="0.9"/><circle cx="202" cy="215" r="1" fill="#fffbe8" opacity="0.7"/><circle cx="196" cy="47" r="1.2" fill="#fffbe8" opacity="0.5"/><circle cx="42" cy="27" r="1.6" fill="#fffbe8" opacity="0.9"/><circle cx="152" cy="137" r="1" fill="#fffbe8" opacity="0.5"/><circle cx="412" cy="121" r="1.2" fill="#fffbe8" opacity="0.9"/><circle cx="517" cy="22" r="1.6" fill="#fffbe8" opacity="0.9"/><circle cx="534" cy="289" r="1" fill="#fffbe8" opacity="0.7"/><circle cx="112" cy="299" r="1.6" fill="#fffbe8" opacity="0.7"/><circle cx="215" cy="205" r="1.2" fill="#fffbe8" opacity="0.9"/><circle cx="18" cy="194" r="1.6" fill="#fffbe8" opacity="0.5"/><circle cx="443" cy="57" r="1.2" fill="#fffbe8" opacity="0.5"/><circle cx="454" cy="138" r="1.6" fill="#fffbe8" opacity="0.5"/><circle cx="314" cy="145" r="1" fill="#fffbe8" opacity="0.9"/><circle cx="56" cy="13" r="2.2" fill="#fffbe8" opacity="0.9"/><circle cx="438" cy="254" r="1.6" fill="#fffbe8" opacity="0.9"/><circle cx="254" cy="289" r="1" fill="#fffbe8" opacity="0.7"/><circle cx="236" cy="49" r="2.2" fill="#fffbe8" opacity="0.9"/><circle cx="381" cy="286" r="1.6" fill="#fffbe8" opacity="0.5"/><circle cx="297" cy="87" r="1.6" fill="#fffbe8" opacity="0.5"/><circle cx="51" cy="88" r="1.6" fill="#fffbe8" opacity="0.5"/><circle cx="123" cy="75" r="1" fill="#fffbe8" opacity="0.5"/><circle cx="62" cy="230" r="1.2" fill="#fffbe8" opacity="0.7"/><circle cx="301" cy="7" r="1.6" fill="#fffbe8" opacity="0.7"/><circle cx="144" cy="246" r="1.6" fill="#fffbe8" opacity="0.5"/><circle cx="88" cy="284" r="1.6" fill="#fffbe8" opacity="0.9"/><circle cx="120" cy="33" r="2.2" fill="#fffbe8" opacity="0.7"/><circle cx="145" cy="287" r="2.2" fill="#fffbe8" opacity="0.9"/><circle cx="173" cy="140" r="2.2" fill="#fffbe8" opacity="0.7"/><circle cx="101" cy="24" r="1.6" fill="#fffbe8" opacity="0.9"/><circle cx="131" cy="88" r="1" fill="#fffbe8" opacity="0.5"/><circle cx="227" cy="6" r="1.2" fill="#fffbe8" opacity="0.5"/><circle cx="485" cy="233" r="2.2" fill="#fffbe8" opacity="0.5"/><circle cx="177" cy="280" r="2.2" fill="#fffbe8" opacity="0.9"/><circle cx="268" cy="274" r="1" fill="#fffbe8" opacity="0.9"/><circle cx="29" cy="297" r="2.2" fill="#fffbe8" opacity="0.9"/><circle cx="316" cy="268" r="1" fill="#fffbe8" opacity="0.9"/><circle cx="587" cy="277" r="1.6" fill="#fffbe8" opacity="0.5"/><circle cx="229" cy="70" r="1" fill="#fffbe8" opacity="0.5"/><path d="M110 61L112.7 67.3L119 70L112.7 72.7L110 79L107.3 72.7L101 70L107.3 67.3Z" fill="#fffbe8"/><path d="M250 33L252.1 37.9L257 40L252.1 42.1L250 47L247.9 42.1L243 40L247.9 37.9Z" fill="#fffbe8"/><path d="M560 254L561.8 258.2L566 260L561.8 261.8L560 266L558.2 261.8L554 260L558.2 258.2Z" fill="#fffbe8"/><path d="M40 224L41.8 228.2L46 230L41.8 231.8L40 236L38.2 231.8L34 230L38.2 228.2Z" fill="#fffbe8"/><path d="M0 320Q90 270 170 300T330 280T480 300T600 270V600H0Z" fill="#8a76b8" opacity=".8"/><path d="M0 221L-22 335H22Z" fill="#6f5ea0" opacity=".85"/><path d="M38 222L16 321H60Z" fill="#6f5ea0" opacity=".85"/><path d="M76 239L54 340H98Z" fill="#6f5ea0" opacity=".85"/><path d="M114 205L92 321H136Z" fill="#6f5ea0" opacity=".85"/><path d="M152 226L130 339H174Z" fill="#6f5ea0" opacity=".85"/><path d="M190 260L168 331H212Z" fill="#6f5ea0" opacity=".85"/><path d="M228 249L206 334H250Z" fill="#6f5ea0" opacity=".85"/><path d="M266 247L244 331H288Z" fill="#6f5ea0" opacity=".85"/><path d="M304 222L282 338H326Z" fill="#6f5ea0" opacity=".85"/><path d="M342 226L320 335H364Z" fill="#6f5ea0" opacity=".85"/><path d="M380 236L358 321H402Z" fill="#6f5ea0" opacity=".85"/><path d="M418 230L396 339H440Z" fill="#6f5ea0" opacity=".85"/><path d="M456 264L434 339H478Z" fill="#6f5ea0" opacity=".85"/><path d="M494 260L472 333H516Z" fill="#6f5ea0" opacity=".85"/><path d="M532 242L510 338H554Z" fill="#6f5ea0" opacity=".85"/><path d="M570 248L548 322H592Z" fill="#6f5ea0" opacity=".85"/><path d="M608 239L586 321H630Z" fill="#6f5ea0" opacity=".85"/><path d="M0 380Q140 340 300 372T600 360V600H0Z" fill="#8e7cc0"/><path d="M0 440Q160 400 320 430T600 420V600H0Z" fill="#a693d3"/><path d="M0 480Q300 452 600 482V600H0Z" fill="#b6a5de"/><path d="M240 600Q210 545 290 505Q350 478 322 456Q392 476 352 510Q290 548 372 600Z" fill="#e6dcf7" opacity=".55"/><g transform="translate(46 520) scale(1.15 1.15)"><path d="M-8 0Q-2-50-14-90Q-26-130 4-160M4-160Q30-180 44-150M-14-90Q-44-100-52-128" fill="none" stroke="#4e3f78" stroke-width="12" stroke-linecap="round"/><circle cx="4" cy="-170" r="34" fill="#7b67b4"/><circle cx="44" cy="-150" r="24" fill="#8a77c2"/><circle cx="-52" cy="-132" r="26" fill="#7b67b4"/><circle cx="-10" cy="-190" r="16" fill="#9b89cf" opacity=".8"/></g><g transform="translate(560 515) scale(-1.2 1.2)"><path d="M-8 0Q-2-50-14-90Q-26-130 4-160M4-160Q30-180 44-150M-14-90Q-44-100-52-128" fill="none" stroke="#4e3f78" stroke-width="12" stroke-linecap="round"/><circle cx="4" cy="-170" r="34" fill="#7b67b4"/><circle cx="44" cy="-150" r="24" fill="#8a77c2"/><circle cx="-52" cy="-132" r="26" fill="#7b67b4"/><circle cx="-10" cy="-190" r="16" fill="#9b89cf" opacity=".8"/></g><g transform="translate(130 452) scale(0.55 0.55)"><path d="M-8 0Q-2-50-14-90Q-26-130 4-160M4-160Q30-180 44-150M-14-90Q-44-100-52-128" fill="none" stroke="#4e3f78" stroke-width="12" stroke-linecap="round"/><circle cx="4" cy="-170" r="34" fill="#7b67b4"/><circle cx="44" cy="-150" r="24" fill="#8a77c2"/><circle cx="-52" cy="-132" r="26" fill="#7b67b4"/><circle cx="-10" cy="-190" r="16" fill="#9b89cf" opacity=".8"/></g><g transform="translate(478 446) scale(-0.55 0.55)"><path d="M-8 0Q-2-50-14-90Q-26-130 4-160M4-160Q30-180 44-150M-14-90Q-44-100-52-128" fill="none" stroke="#4e3f78" stroke-width="12" stroke-linecap="round"/><circle cx="4" cy="-170" r="34" fill="#7b67b4"/><circle cx="44" cy="-150" r="24" fill="#8a77c2"/><circle cx="-52" cy="-132" r="26" fill="#7b67b4"/><circle cx="-10" cy="-190" r="16" fill="#9b89cf" opacity=".8"/></g><g transform="translate(180 530) scale(1.2)"><circle cx="0" cy="-16" r="26" fill="url(#glow)" opacity=".7"/><rect x="-3" y="-14" width="6" height="16" rx="3" fill="#efe6ff"/><path d="M-14-12Q0-34 14-12Z" fill="#7fe3f2"/><circle cx="-5" cy="-19" r="2" fill="#fff"/><circle cx="5" cy="-16" r="1.6" fill="#fff"/></g><g transform="translate(200 540) scale(0.8)"><circle cx="0" cy="-16" r="26" fill="url(#glow)" opacity=".7"/><rect x="-3" y="-14" width="6" height="16" rx="3" fill="#efe6ff"/><path d="M-14-12Q0-34 14-12Z" fill="#a8f0f8"/><circle cx="-5" cy="-19" r="2" fill="#fff"/><circle cx="5" cy="-16" r="1.6" fill="#fff"/></g><g transform="translate(410 548) scale(1.1)"><circle cx="0" cy="-16" r="26" fill="url(#glow)" opacity=".7"/><rect x="-3" y="-14" width="6" height="16" rx="3" fill="#efe6ff"/><path d="M-14-12Q0-34 14-12Z" fill="#f6a6e6"/><circle cx="-5" cy="-19" r="2" fill="#fff"/><circle cx="5" cy="-16" r="1.6" fill="#fff"/></g><g transform="translate(428 556) scale(0.7)"><circle cx="0" cy="-16" r="26" fill="url(#glow)" opacity=".7"/><rect x="-3" y="-14" width="6" height="16" rx="3" fill="#efe6ff"/><path d="M-14-12Q0-34 14-12Z" fill="#ffc4f0"/><circle cx="-5" cy="-19" r="2" fill="#fff"/><circle cx="5" cy="-16" r="1.6" fill="#fff"/></g><g transform="translate(96 568) scale(0.9)"><circle cx="0" cy="-16" r="26" fill="url(#glow)" opacity=".7"/><rect x="-3" y="-14" width="6" height="16" rx="3" fill="#efe6ff"/><path d="M-14-12Q0-34 14-12Z" fill="#7fe3f2"/><circle cx="-5" cy="-19" r="2" fill="#fff"/><circle cx="5" cy="-16" r="1.6" fill="#fff"/></g><g transform="translate(520 578) scale(1)"><circle cx="0" cy="-16" r="26" fill="url(#glow)" opacity=".7"/><rect x="-3" y="-14" width="6" height="16" rx="3" fill="#efe6ff"/><path d="M-14-12Q0-34 14-12Z" fill="#b8f5c8"/><circle cx="-5" cy="-19" r="2" fill="#fff"/><circle cx="5" cy="-16" r="1.6" fill="#fff"/></g><g transform="translate(185 490)"><path d="M0 10V-2" stroke="#6f5ea0" stroke-width="2"/><circle cy="-5" r="4" fill="#ffd1f5"/><circle cy="-5" r="9" fill="#ffd1f5" opacity=".25"/></g><g transform="translate(30 525)"><path d="M0 10V-2" stroke="#6f5ea0" stroke-width="2"/><circle cy="-5" r="4" fill="#fff3b8"/><circle cy="-5" r="9" fill="#fff3b8" opacity=".25"/></g><g transform="translate(481 550)"><path d="M0 10V-2" stroke="#6f5ea0" stroke-width="2"/><circle cy="-5" r="4" fill="#fff3b8"/><circle cy="-5" r="9" fill="#fff3b8" opacity=".25"/></g><g transform="translate(486 483)"><path d="M0 10V-2" stroke="#6f5ea0" stroke-width="2"/><circle cy="-5" r="4" fill="#fff3b8"/><circle cy="-5" r="9" fill="#fff3b8" opacity=".25"/></g><g transform="translate(77 522)"><path d="M0 10V-2" stroke="#6f5ea0" stroke-width="2"/><circle cy="-5" r="4" fill="#ffd1f5"/><circle cy="-5" r="9" fill="#ffd1f5" opacity=".25"/></g><g transform="translate(329 481)"><path d="M0 10V-2" stroke="#6f5ea0" stroke-width="2"/><circle cy="-5" r="4" fill="#c9f3ff"/><circle cy="-5" r="9" fill="#c9f3ff" opacity=".25"/></g><g transform="translate(459 555)"><path d="M0 10V-2" stroke="#6f5ea0" stroke-width="2"/><circle cy="-5" r="4" fill="#ffd1f5"/><circle cy="-5" r="9" fill="#ffd1f5" opacity=".25"/></g><g transform="translate(395 541)"><path d="M0 10V-2" stroke="#6f5ea0" stroke-width="2"/><circle cy="-5" r="4" fill="#ffd1f5"/><circle cy="-5" r="9" fill="#ffd1f5" opacity=".25"/></g><g transform="translate(108 594)"><path d="M0 10V-2" stroke="#6f5ea0" stroke-width="2"/><circle cy="-5" r="4" fill="#c9f3ff"/><circle cy="-5" r="9" fill="#c9f3ff" opacity=".25"/></g><g transform="translate(236 537)"><path d="M0 10V-2" stroke="#6f5ea0" stroke-width="2"/><circle cy="-5" r="4" fill="#ffd1f5"/><circle cy="-5" r="9" fill="#ffd1f5" opacity=".25"/></g><g transform="translate(196 508)"><path d="M0 10V-2" stroke="#6f5ea0" stroke-width="2"/><circle cy="-5" r="4" fill="#ffd1f5"/><circle cy="-5" r="9" fill="#ffd1f5" opacity=".25"/></g><g transform="translate(113 486)"><path d="M0 10V-2" stroke="#6f5ea0" stroke-width="2"/><circle cy="-5" r="4" fill="#ffd1f5"/><circle cy="-5" r="9" fill="#ffd1f5" opacity=".25"/></g><g transform="translate(76 600)"><path d="M0 10V-2" stroke="#6f5ea0" stroke-width="2"/><circle cy="-5" r="4" fill="#fff3b8"/><circle cy="-5" r="9" fill="#fff3b8" opacity=".25"/></g><g transform="translate(84 527)"><path d="M0 10V-2" stroke="#6f5ea0" stroke-width="2"/><circle cy="-5" r="4" fill="#ffd1f5"/><circle cy="-5" r="9" fill="#ffd1f5" opacity=".25"/></g><g transform="translate(24 539)"><path d="M0 10V-2" stroke="#6f5ea0" stroke-width="2"/><circle cy="-5" r="4" fill="#fff3b8"/><circle cy="-5" r="9" fill="#fff3b8" opacity=".25"/></g><g transform="translate(534 505)"><path d="M0 10V-2" stroke="#6f5ea0" stroke-width="2"/><circle cy="-5" r="4" fill="#c9f3ff"/><circle cy="-5" r="9" fill="#c9f3ff" opacity=".25"/></g><g transform="translate(83 510)"><path d="M0 10V-2" stroke="#6f5ea0" stroke-width="2"/><circle cy="-5" r="4" fill="#ffd1f5"/><circle cy="-5" r="9" fill="#ffd1f5" opacity=".25"/></g><g transform="translate(262 577)"><path d="M0 10V-2" stroke="#6f5ea0" stroke-width="2"/><circle cy="-5" r="4" fill="#fff3b8"/><circle cy="-5" r="9" fill="#fff3b8" opacity=".25"/></g><g transform="translate(202 481)"><path d="M0 10V-2" stroke="#6f5ea0" stroke-width="2"/><circle cy="-5" r="4" fill="#c9f3ff"/><circle cy="-5" r="9" fill="#c9f3ff" opacity=".25"/></g><g transform="translate(259 600)"><path d="M0 10V-2" stroke="#6f5ea0" stroke-width="2"/><circle cy="-5" r="4" fill="#fff3b8"/><circle cy="-5" r="9" fill="#fff3b8" opacity=".25"/></g><g transform="translate(22 493)"><path d="M0 10V-2" stroke="#6f5ea0" stroke-width="2"/><circle cy="-5" r="4" fill="#fff3b8"/><circle cy="-5" r="9" fill="#fff3b8" opacity=".25"/></g><g transform="translate(427 487)"><path d="M0 10V-2" stroke="#6f5ea0" stroke-width="2"/><circle cy="-5" r="4" fill="#c9f3ff"/><circle cy="-5" r="9" fill="#c9f3ff" opacity=".25"/></g><circle cx="486" cy="411" r="2.4" fill="#fff6b0"/><circle cx="486" cy="411" r="7" fill="#fff6b0" opacity=".25"/><circle cx="225" cy="280" r="2.4" fill="#fff6b0"/><circle cx="225" cy="280" r="7" fill="#fff6b0" opacity=".25"/><circle cx="281" cy="317" r="2.4" fill="#fff6b0"/><circle cx="281" cy="317" r="7" fill="#fff6b0" opacity=".25"/><circle cx="307" cy="269" r="2.4" fill="#fff6b0"/><circle cx="307" cy="269" r="7" fill="#fff6b0" opacity=".25"/><circle cx="191" cy="430" r="2.4" fill="#fff6b0"/><circle cx="191" cy="430" r="7" fill="#fff6b0" opacity=".25"/><circle cx="412" cy="253" r="2.4" fill="#fff6b0"/><circle cx="412" cy="253" r="7" fill="#fff6b0" opacity=".25"/><circle cx="309" cy="298" r="2.4" fill="#fff6b0"/><circle cx="309" cy="298" r="7" fill="#fff6b0" opacity=".25"/><circle cx="30" cy="412" r="2.4" fill="#fff6b0"/><circle cx="30" cy="412" r="7" fill="#fff6b0" opacity=".25"/><circle cx="449" cy="376" r="2.4" fill="#fff6b0"/><circle cx="449" cy="376" r="7" fill="#fff6b0" opacity=".25"/><circle cx="426" cy="414" r="2.4" fill="#fff6b0"/><circle cx="426" cy="414" r="7" fill="#fff6b0" opacity=".25"/><circle cx="503" cy="427" r="2.4" fill="#fff6b0"/><circle cx="503" cy="427" r="7" fill="#fff6b0" opacity=".25"/><circle cx="408" cy="470" r="2.4" fill="#fff6b0"/><circle cx="408" cy="470" r="7" fill="#fff6b0" opacity=".25"/><circle cx="213" cy="290" r="2.4" fill="#fff6b0"/><circle cx="213" cy="290" r="7" fill="#fff6b0" opacity=".25"/><circle cx="283" cy="404" r="2.4" fill="#fff6b0"/><circle cx="283" cy="404" r="7" fill="#fff6b0" opacity=".25"/><circle cx="472" cy="488" r="2.4" fill="#fff6b0"/><circle cx="472" cy="488" r="7" fill="#fff6b0" opacity=".25"/><circle cx="582" cy="483" r="2.4" fill="#fff6b0"/><circle cx="582" cy="483" r="7" fill="#fff6b0" opacity=".25"/><circle cx="450" cy="447" r="2.4" fill="#fff6b0"/><circle cx="450" cy="447" r="7" fill="#fff6b0" opacity=".25"/><circle cx="190" cy="418" r="2.4" fill="#fff6b0"/><circle cx="190" cy="418" r="7" fill="#fff6b0" opacity=".25"/><circle cx="411" cy="280" r="2.4" fill="#fff6b0"/><circle cx="411" cy="280" r="7" fill="#fff6b0" opacity=".25"/><circle cx="332" cy="297" r="2.4" fill="#fff6b0"/><circle cx="332" cy="297" r="7" fill="#fff6b0" opacity=".25"/><circle cx="174" cy="412" r="2.4" fill="#fff6b0"/><circle cx="174" cy="412" r="7" fill="#fff6b0" opacity=".25"/><circle cx="556" cy="263" r="2.4" fill="#fff6b0"/><circle cx="556" cy="263" r="7" fill="#fff6b0" opacity=".25"/><circle cx="193" cy="358" r="2.4" fill="#fff6b0"/><circle cx="193" cy="358" r="7" fill="#fff6b0" opacity=".25"/><circle cx="373" cy="320" r="2.4" fill="#fff6b0"/><circle cx="373" cy="320" r="7" fill="#fff6b0" opacity=".25"/><circle cx="87" cy="422" r="2.4" fill="#fff6b0"/><circle cx="87" cy="422" r="7" fill="#fff6b0" opacity=".25"/><circle cx="457" cy="447" r="2.4" fill="#fff6b0"/><circle cx="457" cy="447" r="7" fill="#fff6b0" opacity=".25"/></svg>