<svg xmlns="http://www.w3.org/2000/svg" viewBox="0 0 600 600" preserveAspectRatio="xMidYMid slice"><defs><linearGradient id="sky" x2="0" y2="1"><stop stop-color="#cee7ec"/><stop offset="1" stop-color="#f4ecd9"/></linearGradient><radialGradient id="glow"><stop stop-color="#f6da9e" stop-opacity=".6"/><stop offset="1" stop-color="#f6da9e" stop-opacity="0"/></radialGradient></defs><path fill="url(#sky)" d="M0 0h600v600H0z"/><circle cx="430" cy="125" r="135" fill="url(#glow)"/><path d="M60 285a240 240 0 0 1 480 0" fill="none" stroke="#e7b2ad" stroke-width="13" opacity=".65"/><path d="M72 285a228 228 0 0 1 456 0" fill="none" stroke="#e9c1a0" stroke-width="13" opacity=".65"/><path d="M84 285a216 216 0 0 1 432 0" fill="none" stroke="#f0dfaa" stroke-width="13" opacity=".65"/><path d="M96 285a204 204 0 0 1 408 0" fill="none" stroke="#afcbb3" stroke-width="13" opacity=".65"/><path d="M108 285a192 192 0 0 1 384 0" fill="none" stroke="#abc6d9" stroke-width="13" opacity=".65"/><path d="M120 285a180 180 0 0 1 360 0" fill="none" stroke="#bcb6d6" stroke-width="13" opacity=".65"/><g transform="translate(30 100) scale(1)" fill="#fff8e8" opacity=".35"><ellipse cx="25" cy="15" rx="70" ry="15"/><ellipse cx="0" cy="0" rx="25" ry="20"/><ellipse cx="40" cy="0" rx="32" ry="26"/></g><g transform="translate(220 65) scale(0.7)" fill="#fff8e8" opacity=".35"><ellipse cx="25" cy="15" rx="70" ry="15"/><ellipse cx="0" cy="0" rx="25" ry="20"/><ellipse cx="40" cy="0" rx="32" ry="26"/></g><g transform="translate(470 200) scale(0.8)" fill="#fff8e8" opacity=".35"><ellipse cx="25" cy="15" rx="70" ry="15"/><ellipse cx="0" cy="0" rx="25" ry="20"/><ellipse cx="40" cy="0" rx="32" ry="26"/></g><path d="M0 340Q130 230 300 337T600 300V600H0" fill="#b8cba3"/><path d="M0 430Q100 340 240 405T600 370V600H0" fill="#8bb49d" opacity=".7"/><path d="M0 483Q300 402 600 470V600H0" fill="#b8cba3"/><path d="M225 600Q150 525 303 460Q410 420 375 394Q450 442 349 476Q242 516 400 600" fill="#f4ecd9" opacity=".35"/><g transform="translate(28 430) scale(1.3)"><path d="M0 6L-4-110" stroke="#8bb49d" stroke-width="9"/><path d="M-3-65L-27-89M-2-42L25-73" stroke="#8bb49d" stroke-width="5"/><g fill="#8bb49d" opacity=".85"><ellipse cx="-20" cy="-108" rx="30" ry="39"/><ellipse cx="15" cy="-125" rx="35" ry="46"/><ellipse cx="34" cy="-88" rx="27" ry="35"/></g><path d="M-24-120l9-7M8-142l14-8M29-98l10-8" stroke="#b8cba3" stroke-width="5" stroke-linecap="round"/></g><g transform="translate(562 416) scale(1.4)"><path d="M0 6L-4-110" stroke="#8bb49d" stroke-width="9"/><path d="M-3-65L-27-89M-2-42L25-73" stroke="#8bb49d" stroke-width="5"/><g fill="#8bb49d" opacity=".85"><ellipse cx="-20" cy="-108" rx="30" ry="39"/><ellipse cx="15" cy="-125" rx="35" ry="46"/><ellipse cx="34" cy="-88" rx="27" ry="35"/></g><path d="M-24-120l9-7M8-142l14-8M29-98l10-8" stroke="#b8cba3" stroke-width="5" stroke-linecap="round"/></g><g transform="translate(102 368) scale(0.65)"><path d="M0 6L-4-110" stroke="#8bb49d" stroke-width="9"/><path d="M-3-65L-27-89M-2-42L25-73" stroke="#8bb49d" stroke-width="5"/><g fill="#8bb49d" opacity=".85"><ellipse cx="-20" cy="-108" rx="30" ry="39"/><ellipse cx="15" cy="-125" rx="35" ry="46"/><ellipse cx="34" cy="-88" rx="27" ry="35"/></g><path d="M-24-120l9-7M8-142l14-8M29-98l10-8" stroke="#b8cba3" stroke-width="5" stroke-linecap="round"/></g><g transform="translate(505 348) scale(0.65)"><path d="M0 6L-4-110" stroke="#8bb49d" stroke-width="9"/><path d="M-3-65L-27-89M-2-42L25-73" stroke="#8bb49d" stroke-width="5"/><g fill="#8bb49d" opacity=".85"><ellipse cx="-20" cy="-108" rx="30" ry="39"/><ellipse cx="15" cy="-125" rx="35" ry="46"/><ellipse cx="34" cy="-88" rx="27" ry="35"/></g><path d="M-24-120l9-7M8-142l14-8M29-98l10-8" stroke="#b8cba3" stroke-width="5" stroke-linecap="round"/></g><g transform="translate(13 490)"><path d="M0 12V-4M0 9q-12-11-14-2M0 6q10-9 13-3" fill="none" stroke="#8bb49d" stroke-width="2"/><g fill="#f6e8bc"><circle cy="-8" r="4"/><circle cx="-5" cy="-3" r="4"/><circle cx="5" cy="-3" r="4"/></g><circle cy="-3" r="2.5" fill="#f6da9e"/></g><g transform="translate(114 519)"><path d="M0 12V-4M0 9q-12-11-14-2M0 6q10-9 13-3" fill="none" stroke="#8bb49d" stroke-width="2"/><g fill="#e7bbb1"><circle cy="-8" r="4"/><circle cx="-5" cy="-3" r="4"/><circle cx="5" cy="-3" r="4"/></g><circle cy="-3" r="2.5" fill="#f6da9e"/></g><g transform="translate(215 548)"><path d="M0 12V-4M0 9q-12-11-14-2M0 6q10-9 13-3" fill="none" stroke="#8bb49d" stroke-width="2"/><g fill="#c0c9dd"><circle cy="-8" r="4"/><circle cx="-5" cy="-3" r="4"/><circle cx="5" cy="-3" r="4"/></g><circle cy="-3" r="2.5" fill="#f6da9e"/></g><g transform="translate(316 577)"><path d="M0 12V-4M0 9q-12-11-14-2M0 6q10-9 13-3" fill="none" stroke="#8bb49d" stroke-width="2"/><g fill="#f6e8bc"><circle cy="-8" r="4"/><circle cx="-5" cy="-3" r="4"/><circle cx="5" cy="-3" r="4"/></g><circle cy="-3" r="2.5" fill="#f6da9e"/></g><g transform="translate(417 496)"><path d="M0 12V-4M0 9q-12-11-14-2M0 6q10-9 13-3" fill="none" stroke="#8bb49d" stroke-width="2"/><g fill="#e7bbb1"><circle cy="-8" r="4"/><circle cx="-5" cy="-3" r="4"/><circle cx="5" cy="-3" r="4"/></g><circle cy="-3" r="2.5" fill="#f6da9e"/></g><g transform="translate(518 525)"><path d="M0 12V-4M0 9q-12-11-14-2M0 6q10-9 13-3" fill="none" stroke="#8bb49d" stroke-width="2"/><g fill="#c0c9dd"><circle cy="-8" r="4"/><circle cx="-5" cy="-3" r="4"/><circle cx="5" cy="-3" r="4"/></g><circle cy="-3" r="2.5" fill="#f6da9e"/></g><g transform="translate(19 554)"><path d="M0 12V-4M0 9q-12-11-14-2M0 6q10-9 13-3" fill="none" stroke="#8bb49d" stroke-width="2"/><g fill="#f6e8bc"><circle cy="-8" r="4"/><circle cx="-5" cy="-3" r="4"/><circle cx="5" cy="-3" r="4"/></g><circle cy="-3" r="2.5" fill="#f6da9e"/></g><g transform="translate(120 583)"><path d="M0 12V-4M0 9q-12-11-14-2M0 6q10-9 13-3" fill="none" stroke="#8bb49d" stroke-width="2"/><g fill="#e7bbb1"><circle cy="-8" r="4"/><circle cx="-5" cy="-3" r="4"/><circle cx="5" cy="-3" r="4"/></g><circle cy="-3" r="2.5" fill="#f6da9e"/></g><g transform="translate(423 560)"><path d="M0 12V-4M0 9q-12-11-14-2M0 6q10-9 13-3" fill="none" stroke="#8bb49d" stroke-width="2"/><g fill="#e7bbb1"><circle cy="-8" r="4"/><circle cx="-5" cy="-3" r="4"/><circle cx="5" cy="-3" r="4"/></g><circle cy="-3" r="2.5" fill="#f6da9e"/></g><g transform="translate(524 589)"><path d="M0 12V-4M0 9q-12-11-14-2M0 6q10-9 13-3" fill="none" stroke="#8bb49d" stroke-width="2"/><g fill="#c0c9dd"><circle cy="-8" r="4"/><circle cx="-5" cy="-3" r="4"/><circle cx="5" cy="-3" r="4"/></g><circle cy="-3" r="2.5" fill="#f6da9e"/></g><g transform="translate(25 508)"><path d="M0 12V-4M0 9q-12-11-14-2M0 6q10-9 13-3" fill="none" stroke="#8bb49d" stroke-width="2"/><g fill="#f6e8bc"><circle cy="-8" r="4"/><circle cx="-5" cy="-3" r="4"/><circle cx="5" cy="-3" r="4"/></g><circle cy="-3" r="2.5" fill="#f6da9e"/></g><g transform="translate(126 537)"><path d="M0 12V-4M0 9q-12-11-14-2M0 6q10-9 13-3" fill="none" stroke="#8bb49d" stroke-width="2"/><g fill="#e7bbb1"><circle cy="-8" r="4"/><circle cx="-5" cy="-3" r="4"/><circle cx="5" cy="-3" r="4"/></g><circle cy="-3" r="2.5" fill="#f6da9e"/></g><g transform="translate(227 566)"><path d="M0 12V-4M0 9q-12-11-14-2M0 6q10-9 13-3" fill="none" stroke="#8bb49d" stroke-width="2"/><g fill="#c0c9dd"><circle cy="-8" r="4"/><circle cx="-5" cy="-3" r="4"/><circle cx="5" cy="-3" r="4"/></g><circle cy="-3" r="2.5" fill="#f6da9e"/></g><g transform="translate(328 595)"><path d="M0 12V-4M0 9q-12-11-14-2M0 6q10-9 13-3" fill="none" stroke="#8bb49d" stroke-width="2"/><g fill="#f6e8bc"><circle cy="-8" r="4"/><circle cx="-5" cy="-3" r="4"/><circle cx="5" cy="-3" r="4"/></g><circle cy="-3" r="2.5" fill="#f6da9e"/></g><g transform="translate(429 514)"><path d="M0 12V-4M0 9q-12-11-14-2M0 6q10-9 13-3" fill="none" stroke="#8bb49d" stroke-width="2"/><g fill="#e7bbb1"><circle cy="-8" r="4"/><circle cx="-5" cy="-3" r="4"/><circle cx="5" cy="-3" r="4"/></g><circle cy="-3" r="2.5" fill="#f6da9e"/></g><g transform="translate(530 543)"><path d="M0 12V-4M0 9q-12-11-14-2M0 6q10-9 13-3" fill="none" stroke="#8bb49d" stroke-width="2"/><g fill="#c0c9dd"><circle cy="-8" r="4"/><circle cx="-5" cy="-3" r="4"/><circle cx="5" cy="-3" r="4"/></g><circle cy="-3" r="2.5" fill="#f6da9e"/></g><g transform="translate(31 572)"><path d="M0 12V-4M0 9q-12-11-14-2M0 6q10-9 13-3" fill="none" stroke="#8bb49d" stroke-width="2"/><g fill="#f6e8bc"><circle cy="-8" r="4"/><circle cx="-5" cy="-3" r="4"/><circle cx="5" cy="-3" r="4"/></g><circle cy="-3" r="2.5" fill="#f6da9e"/></g><g transform="translate(132 491)"><path d="M0 12V-4M0 9q-12-11-14-2M0 6q10-9 13-3" fill="none" stroke="#8bb49d" stroke-width="2"/><g fill="#e7bbb1"><circle cy="-8" r="4"/><circle cx="-5" cy="-3" r="4"/><circle cx="5" cy="-3" r="4"/></g><circle cy="-3" r="2.5" fill="#f6da9e"/></g><g transform="translate(334 549)"><path d="M0 12V-4M0 9q-12-11-14-2M0 6q10-9 13-3" fill="none" stroke="#8bb49d" stroke-width="2"/><g fill="#f6e8bc"><circle cy="-8" r="4"/><circle cx="-5" cy="-3" r="4"/><circle cx="5" cy="-3" r="4"/></g><circle cy="-3" r="2.5" fill="#f6da9e"/></g><g transform="translate(435 578)"><path d="M0 12V-4M0 9q-12-11-14-2M0 6q10-9 13-3" fill="none" stroke="#8bb49d" stroke-width="2"/><g fill="#e7bbb1"><circle cy="-8" r="4"/><circle cx="-5" cy="-3" r="4"/><circle cx="5" cy="-3" r="4"/></g><circle cy="-3" r="2.5" fill="#f6da9e"/></g><g transform="translate(536 497)"><path d="M0 12V-4M0 9q-12-11-14-2M0 6q10-9 13-3" fill="none" stroke="#8bb49d" stroke-width="2"/><g fill="#c0c9dd"><circle cy="-8" r="4"/><circle cx="-5" cy="-3" r="4"/><circle cx="5" cy="-3" r="4"/></g><circle cy="-3" r="2.5" fill="#f6da9e"/></g><g transform="translate(37 526)"><path d="M0 12V-4M0 9q-12-11-14-2M0 6q10-9 13-3" fill="none" stroke="#8bb49d" stroke-width="2"/><g fill="#f6e8bc"><circle cy="-8" r="4"/><circle cx="-5" cy="-3" r="4"/><circle cx="5" cy="-3" r="4"/></g><circle cy="-3" r="2.5" fill="#f6da9e"/></g><g transform="translate(138 555)"><path d="M0 12V-4M0 9q-12-11-14-2M0 6q10-9 13-3" fill="none" stroke="#8bb49d" stroke-width="2"/><g fill="#e7bbb1"><circle cy="-8" r="4"/><circle cx="-5" cy="-3" r="4"/><circle cx="5" cy="-3" r="4"/></g><circle cy="-3" r="2.5" fill="#f6da9e"/></g><g transform="translate(239 584)"><path d="M0 12V-4M0 9q-12-11-14-2M0 6q10-9 13-3" fill="none" stroke="#8bb49d" stroke-width="2"/><g fill="#c0c9dd"><circle cy="-8" r="4"/><circle cx="-5" cy="-3" r="4"/><circle cx="5" cy="-3" r="4"/></g><circle cy="-3" r="2.5" fill="#f6da9e"/></g><g transform="translate(441 532)"><path d="M0 12V-4M0 9q-12-11-14-2M0 6q10-9 13-3" fill="none" stroke="#8bb49d" stroke-width="2"/><g fill="#e7bbb1"><circle cy="-8" r="4"/><circle cx="-5" cy="-3" r="4"/><circle cx="5" cy="-3" r="4"/></g><circle cy="-3" r="2.5" fill="#f6da9e"/></g><g transform="translate(542 561)"><path d="M0 12V-4M0 9q-12-11-14-2M0 6q10-9 13-3" fill="none" stroke="#8bb49d" stroke-width="2"/><g fill="#c0c9dd"><circle cy="-8" r="4"/><circle cx="-5" cy="-3" r="4"/><circle cx="5" cy="-3" r="4"/></g><circle cy="-3" r="2.5" fill="#f6da9e"/></g><g transform="translate(43 590)"><path d="M0 12V-4M0 9q-12-11-14-2M0 6q10-9 13-3" fill="none" stroke="#8bb49d" stroke-width="2"/><g fill="#f6e8bc"><circle cy="-8" r="4"/><circle cx="-5" cy="-3" r="4"/><circle cx="5" cy="-3" r="4"/></g><circle cy="-3" r="2.5" fill="#f6da9e"/></g><g transform="translate(144 509)"><path d="M0 12V-4M0 9q-12-11-14-2M0 6q10-9 13-3" fill="none" stroke="#8bb49d" stroke-width="2"/><g fill="#e7bbb1"><circle cy="-8" r="4"/><circle cx="-5" cy="-3" r="4"/><circle cx="5" cy="-3" r="4"/></g><circle cy="-3" r="2.5" fill="#f6da9e"/></g><ellipse cx="65" cy="555" rx="15" ry="7" fill="#8bb49d" opacity=".5"/><path d="M79 543v13" stroke="#e8d8b8" stroke-width="5"/><path d="M69 543q10-20 20 0z" fill="#f6da9e"/><ellipse cx="535" cy="525" rx="15" ry="7" fill="#8bb49d" opacity=".5"/><path d="M549 513v13" stroke="#e8d8b8" stroke-width="5"/><path d="M539 513q10-20 20 0z" fill="#f6da9e"/><ellipse cx="133" cy="578" rx="15" ry="7" fill="#8bb49d" opacity=".5"/><path d="M147 566v13" stroke="#e8d8b8" stroke-width="5"/><path d="M137 566q10-20 20 0z" fill="#f6da9e"/><circle cx="42" cy="310" r="2" fill="#f6da9e" opacity=".7"/><circle cx="115" cy="333" r="2" fill="#f6da9e" opacity=".7"/><circle cx="188" cy="356" r="2" fill="#f6da9e" opacity=".7"/><circle cx="261" cy="379" r="2" fill="#f6da9e" opacity=".7"/><circle cx="334" cy="402" r="2" fill="#f6da9e" opacity=".7"/><circle cx="407" cy="425" r="2" fill="#f6da9e" opacity=".7"/><circle cx="480" cy="448" r="2" fill="#f6da9e" opacity=".7"/><circle cx="553" cy="471" r="2" fill="#f6da9e" opacity=".7"/><circle cx="26" cy="494" r="2" fill="#f6da9e" opacity=".7"/></svg>