<svg xmlns="http://www.w3.org/2000/svg" viewBox="0 0 600 600" preserveAspectRatio="xMidYMid slice"><defs><linearGradient id="sky" x2="0" y2="1"><stop offset="0" stop-color="#fde6ee"/><stop offset="1" stop-color="#fdf4ea"/></linearGradient></defs><path fill="url(#sky)" d="M0 0h600v600H0z"/><circle cx="460" cy="120" r="38" fill="#fff3d6" opacity=".9"/><g transform="translate(120 90) scale(1)" fill="#fff8ee" opacity="0.6"><ellipse cx="0" cy="0" rx="62" ry="13"/><ellipse cx="-22" cy="-9" rx="26" ry="16"/><ellipse cx="14" cy="-14" rx="30" ry="20"/></g><g transform="translate(360 60) scale(0.7)" fill="#fff8ee" opacity="0.6"><ellipse cx="0" cy="0" rx="62" ry="13"/><ellipse cx="-22" cy="-9" rx="26" ry="16"/><ellipse cx="14" cy="-14" rx="30" ry="20"/></g><path d="M0 330Q150 280 300 320T600 300V600H0Z" fill="#cfe3c2"/><path d="M0 400Q160 360 320 392T600 380V600H0Z" fill="#b6d4a6"/><path d="M0 470Q300 440 600 470V600H0Z" fill="#c7dfb5"/><path d="M240 600Q205 540 290 500Q352 474 322 452Q392 472 352 508Q292 546 372 600Z" fill="#fbeef0" opacity="0.8"/><g transform="translate(46 470) scale(1.15)"><path d="M-6 0Q-2-60-10-110M-8-70Q-40-90-50-120M-6-90Q20-120 34-140" fill="none" stroke="#8c6a5a" stroke-width="12" stroke-linecap="round"/><circle cx="-10" cy="-130" r="46" fill="#f7c3d2"/><circle cx="-50" cy="-120" r="34" fill="#f7c3d2"/><circle cx="30" cy="-138" r="38" fill="#f7c3d2"/><circle cx="10" cy="-165" r="32" fill="#f7c3d2"/><circle cx="-35" cy="-160" r="28" fill="#f7c3d2"/><circle cx="50" cy="-110" r="26" fill="#f7c3d2"/><circle cx="-36" cy="-118" r="4" fill="#fde3ea"/><circle cx="-5" cy="-175" r="5" fill="#fde3ea"/><circle cx="45" cy="-130" r="6" fill="#fde3ea"/><circle cx="27" cy="-164" r="4" fill="#fde3ea"/><circle cx="54" cy="-187" r="5" fill="#fde3ea"/><circle cx="40" cy="-113" r="4" fill="#fde3ea"/><circle cx="44" cy="-156" r="6" fill="#fde3ea"/><circle cx="-12" cy="-115" r="4" fill="#fde3ea"/><circle cx="11" cy="-187" r="4" fill="#fde3ea"/><circle cx="-64" cy="-107" r="6" fill="#fde3ea"/><circle cx="-68" cy="-142" r="6" fill="#fde3ea"/><circle cx="-15" cy="-136" r="6" fill="#fde3ea"/><circle cx="-63" cy="-123" r="4" fill="#fde3ea"/><circle cx="42" cy="-127" r="6" fill="#fde3ea"/></g><g transform="translate(560 462) scale(1.2)"><path d="M-6 0Q-2-60-10-110M-8-70Q-40-90-50-120M-6-90Q20-120 34-140" fill="none" stroke="#8c6a5a" stroke-width="12" stroke-linecap="round"/><circle cx="-10" cy="-130" r="46" fill="#f7c3d2"/><circle cx="-50" cy="-120" r="34" fill="#f7c3d2"/><circle cx="30" cy="-138" r="38" fill="#f7c3d2"/><circle cx="10" cy="-165" r="32" fill="#f7c3d2"/><circle cx="-35" cy="-160" r="28" fill="#f7c3d2"/><circle cx="50" cy="-110" r="26" fill="#f7c3d2"/><circle cx="-11" cy="-146" r="4" fill="#fde3ea"/><circle cx="-14" cy="-132" r="5" fill="#fde3ea"/><circle cx="-65" cy="-137" r="6" fill="#fde3ea"/><circle cx="-45" cy="-167" r="6" fill="#fde3ea"/><circle cx="5" cy="-175" r="6" fill="#fde3ea"/><circle cx="15" cy="-126" r="5" fill="#fde3ea"/><circle cx="59" cy="-105" r="4" fill="#fde3ea"/><circle cx="7" cy="-154" r="6" fill="#fde3ea"/><circle cx="57" cy="-126" r="5" fill="#fde3ea"/><circle cx="-62" cy="-129" r="4" fill="#fde3ea"/><circle cx="33" cy="-137" r="6" fill="#fde3ea"/><circle cx="-26" cy="-144" r="6" fill="#fde3ea"/><circle cx="25" cy="-179" r="5" fill="#fde3ea"/><circle cx="60" cy="-177" r="4" fill="#fde3ea"/></g><g transform="translate(140 400) scale(0.55)"><path d="M-6 0Q-2-60-10-110M-8-70Q-40-90-50-120M-6-90Q20-120 34-140" fill="none" stroke="#8c6a5a" stroke-width="12" stroke-linecap="round"/><circle cx="-10" cy="-130" r="46" fill="#f7c3d2"/><circle cx="-50" cy="-120" r="34" fill="#f7c3d2"/><circle cx="30" cy="-138" r="38" fill="#f7c3d2"/><circle cx="10" cy="-165" r="32" fill="#f7c3d2"/><circle cx="-35" cy="-160" r="28" fill="#f7c3d2"/><circle cx="50" cy="-110" r="26" fill="#f7c3d2"/><circle cx="30" cy="-143" r="5" fill="#fde3ea"/><circle cx="-63" cy="-130" r="4" fill="#fde3ea"/><circle cx="8" cy="-100" r="6" fill="#fde3ea"/><circle cx="30" cy="-108" r="4" fill="#fde3ea"/><circle cx="-27" cy="-126" r="4" fill="#fde3ea"/><circle cx="-67" cy="-165" r="6" fill="#fde3ea"/><circle cx="-11" cy="-139" r="6" fill="#fde3ea"/><circle cx="18" cy="-117" r="5" fill="#fde3ea"/><circle cx="47" cy="-156" r="6" fill="#fde3ea"/><circle cx="-69" cy="-141" r="6" fill="#fde3ea"/><circle cx="-37" cy="-124" r="6" fill="#fde3ea"/><circle cx="-18" cy="-136" r="4" fill="#fde3ea"/><circle cx="53" cy="-144" r="6" fill="#fde3ea"/><circle cx="-19" cy="-126" r="5" fill="#fde3ea"/></g><g transform="translate(470 396) scale(0.55)"><path d="M-6 0Q-2-60-10-110M-8-70Q-40-90-50-120M-6-90Q20-120 34-140" fill="none" stroke="#8c6a5a" stroke-width="12" stroke-linecap="round"/><circle cx="-10" cy="-130" r="46" fill="#f7c3d2"/><circle cx="-50" cy="-120" r="34" fill="#f7c3d2"/><circle cx="30" cy="-138" r="38" fill="#f7c3d2"/><circle cx="10" cy="-165" r="32" fill="#f7c3d2"/><circle cx="-35" cy="-160" r="28" fill="#f7c3d2"/><circle cx="50" cy="-110" r="26" fill="#f7c3d2"/><circle cx="54" cy="-145" r="5" fill="#fde3ea"/><circle cx="18" cy="-190" r="6" fill="#fde3ea"/><circle cx="14" cy="-132" r="6" fill="#fde3ea"/><circle cx="-63" cy="-161" r="6" fill="#fde3ea"/><circle cx="-25" cy="-120" r="6" fill="#fde3ea"/><circle cx="-24" cy="-179" r="6" fill="#fde3ea"/><circle cx="-5" cy="-186" r="6" fill="#fde3ea"/><circle cx="-52" cy="-180" r="4" fill="#fde3ea"/><circle cx="45" cy="-189" r="5" fill="#fde3ea"/><circle cx="-7" cy="-156" r="4" fill="#fde3ea"/><circle cx="-23" cy="-146" r="5" fill="#fde3ea"/><circle cx="-53" cy="-169" r="4" fill="#fde3ea"/><circle cx="-5" cy="-123" r="4" fill="#fde3ea"/><circle cx="-1" cy="-108" r="6" fill="#fde3ea"/></g><ellipse cx="301" cy="485" rx="4" ry="2.6" fill="#f6b6c8" opacity=".75" transform="rotate(179 301 485)"/><ellipse cx="329" cy="528" rx="4" ry="2.6" fill="#f6b6c8" opacity=".75" transform="rotate(121 329 528)"/><ellipse cx="116" cy="44" rx="4" ry="2.6" fill="#f6b6c8" opacity=".75" transform="rotate(79 116 44)"/><ellipse cx="395" cy="371" rx="4" ry="2.6" fill="#f6b6c8" opacity=".75" transform="rotate(107 395 371)"/><ellipse cx="192" cy="284" rx="4" ry="2.6" fill="#f6b6c8" opacity=".75" transform="rotate(27 192 284)"/><ellipse cx="259" cy="542" rx="4" ry="2.6" fill="#f6b6c8" opacity=".75" transform="rotate(53 259 542)"/><ellipse cx="442" cy="41" rx="4" ry="2.6" fill="#f6b6c8" opacity=".75" transform="rotate(57 442 41)"/><ellipse cx="18" cy="426" rx="4" ry="2.6" fill="#f6b6c8" opacity=".75" transform="rotate(37 18 426)"/><ellipse cx="36" cy="184" rx="4" ry="2.6" fill="#f6b6c8" opacity=".75" transform="rotate(114 36 184)"/><ellipse cx="518" cy="456" rx="4" ry="2.6" fill="#f6b6c8" opacity=".75" transform="rotate(139 518 456)"/><ellipse cx="225" cy="548" rx="4" ry="2.6" fill="#f6b6c8" opacity=".75" transform="rotate(115 225 548)"/><ellipse cx="228" cy="556" rx="4" ry="2.6" fill="#f6b6c8" opacity=".75" transform="rotate(166 228 556)"/><ellipse cx="31" cy="424" rx="4" ry="2.6" fill="#f6b6c8" opacity=".75" transform="rotate(172 31 424)"/><ellipse cx="589" cy="348" rx="4" ry="2.6" fill="#f6b6c8" opacity=".75" transform="rotate(168 589 348)"/><ellipse cx="436" cy="80" rx="4" ry="2.6" fill="#f6b6c8" opacity=".75" transform="rotate(76 436 80)"/><ellipse cx="128" cy="237" rx="4" ry="2.6" fill="#f6b6c8" opacity=".75" transform="rotate(12 128 237)"/><ellipse cx="313" cy="92" rx="4" ry="2.6" fill="#f6b6c8" opacity=".75" transform="rotate(19 313 92)"/><ellipse cx="317" cy="325" rx="4" ry="2.6" fill="#f6b6c8" opacity=".75" transform="rotate(40 317 325)"/><ellipse cx="426" cy="598" rx="4" ry="2.6" fill="#f6b6c8" opacity=".75" transform="rotate(64 426 598)"/><ellipse cx="133" cy="28" rx="4" ry="2.6" fill="#f6b6c8" opacity=".75" transform="rotate(143 133 28)"/><ellipse cx="38" cy="242" rx="4" ry="2.6" fill="#f6b6c8" opacity=".75" transform="rotate(145 38 242)"/><ellipse cx="471" cy="195" rx="4" ry="2.6" fill="#f6b6c8" opacity=".75" transform="rotate(180 471 195)"/><ellipse cx="521" cy="58" rx="4" ry="2.6" fill="#f6b6c8" opacity=".75" transform="rotate(96 521 58)"/><ellipse cx="205" cy="375" rx="4" ry="2.6" fill="#f6b6c8" opacity=".75" transform="rotate(25 205 375)"/><ellipse cx="210" cy="463" rx="4" ry="2.6" fill="#f6b6c8" opacity=".75" transform="rotate(151 210 463)"/><ellipse cx="198" cy="524" rx="4" ry="2.6" fill="#f6b6c8" opacity=".75" transform="rotate(26 198 524)"/><ellipse cx="399" cy="323" rx="4" ry="2.6" fill="#f6b6c8" opacity=".75" transform="rotate(129 399 323)"/><ellipse cx="511" cy="37" rx="4" ry="2.6" fill="#f6b6c8" opacity=".75" transform="rotate(83 511 37)"/><ellipse cx="411" cy="308" rx="4" ry="2.6" fill="#f6b6c8" opacity=".75" transform="rotate(4 411 308)"/><ellipse cx="160" cy="225" rx="4" ry="2.6" fill="#f6b6c8" opacity=".75" transform="rotate(83 160 225)"/><ellipse cx="576" cy="158" rx="4" ry="2.6" fill="#f6b6c8" opacity=".75" transform="rotate(86 576 158)"/><ellipse cx="439" cy="238" rx="4" ry="2.6" fill="#f6b6c8" opacity=".75" transform="rotate(68 439 238)"/><ellipse cx="98" cy="408" rx="4" ry="2.6" fill="#f6b6c8" opacity=".75" transform="rotate(140 98 408)"/><ellipse cx="352" cy="567" rx="4" ry="2.6" fill="#f6b6c8" opacity=".75" transform="rotate(124 352 567)"/><ellipse cx="545" cy="260" rx="4" ry="2.6" fill="#f6b6c8" opacity=".75" transform="rotate(16 545 260)"/><ellipse cx="41" cy="106" rx="4" ry="2.6" fill="#f6b6c8" opacity=".75" transform="rotate(34 41 106)"/><ellipse cx="173" cy="190" rx="4" ry="2.6" fill="#f6b6c8" opacity=".75" transform="rotate(137 173 190)"/><ellipse cx="218" cy="294" rx="4" ry="2.6" fill="#f6b6c8" opacity=".75" transform="rotate(85 218 294)"/><ellipse cx="518" cy="281" rx="4" ry="2.6" fill="#f6b6c8" opacity=".75" transform="rotate(94 518 281)"/><ellipse cx="346" cy="368" rx="4" ry="2.6" fill="#f6b6c8" opacity=".75" transform="rotate(29 346 368)"/><ellipse cx="298" cy="260" rx="4" ry="2.6" fill="#f6b6c8" opacity=".75" transform="rotate(154 298 260)"/><ellipse cx="500" cy="158" rx="4" ry="2.6" fill="#f6b6c8" opacity=".75" transform="rotate(148 500 158)"/><ellipse cx="564" cy="126" rx="4" ry="2.6" fill="#f6b6c8" opacity=".75" transform="rotate(82 564 126)"/><ellipse cx="40" cy="436" rx="4" ry="2.6" fill="#f6b6c8" opacity=".75" transform="rotate(18 40 436)"/><ellipse cx="389" cy="170" rx="4" ry="2.6" fill="#f6b6c8" opacity=".75" transform="rotate(32 389 170)"/><ellipse cx="349" cy="137" rx="4" ry="2.6" fill="#f6b6c8" opacity=".75" transform="rotate(157 349 137)"/><ellipse cx="387" cy="98" rx="4" ry="2.6" fill="#f6b6c8" opacity=".75" transform="rotate(146 387 98)"/><ellipse cx="563" cy="249" rx="4" ry="2.6" fill="#f6b6c8" opacity=".75" transform="rotate(144 563 249)"/><ellipse cx="83" cy="293" rx="4" ry="2.6" fill="#f6b6c8" opacity=".75" transform="rotate(93 83 293)"/><ellipse cx="302" cy="597" rx="4" ry="2.6" fill="#f6b6c8" opacity=".75" transform="rotate(136 302 597)"/><ellipse cx="117" cy="488" rx="4" ry="2.6" fill="#f6b6c8" opacity=".75" transform="rotate(70 117 488)"/><ellipse cx="110" cy="66" rx="4" ry="2.6" fill="#f6b6c8" opacity=".75" transform="rotate(75 110 66)"/><ellipse cx="12" cy="34" rx="4" ry="2.6" fill="#f6b6c8" opacity=".75" transform="rotate(23 12 34)"/><ellipse cx="423" cy="137" rx="4" ry="2.6" fill="#f6b6c8" opacity=".75" transform="rotate(10 423 137)"/><ellipse cx="192" cy="265" rx="4" ry="2.6" fill="#f6b6c8" opacity=".75" transform="rotate(150 192 265)"/><ellipse cx="431" cy="185" rx="4" ry="2.6" fill="#f6b6c8" opacity=".75" transform="rotate(29 431 185)"/><ellipse cx="461" cy="191" rx="4" ry="2.6" fill="#f6b6c8" opacity=".75" transform="rotate(174 461 191)"/><ellipse cx="247" cy="182" rx="4" ry="2.6" fill="#f6b6c8" opacity=".75" transform="rotate(26 247 182)"/><ellipse cx="445" cy="407" rx="4" ry="2.6" fill="#f6b6c8" opacity=".75" transform="rotate(138 445 407)"/><ellipse cx="301" cy="583" rx="4" ry="2.6" fill="#f6b6c8" opacity=".75" transform="rotate(64 301 583)"/><g transform="translate(20 530)"><path d="M0 12V-4M0 8q-9-8-12-2M0 6q8-7 11-2" fill="none" stroke="#6f9a5a" stroke-width="2"/><g fill="#fbe3a8"><circle cy="-8" r="4"/><circle cx="-5" cy="-3" r="4"/><circle cx="5" cy="-3" r="4"/></g><circle cy="-4" r="2.3" fill="#f7df91"/></g><g transform="translate(90 560)"><path d="M0 12V-4M0 8q-9-8-12-2M0 6q8-7 11-2" fill="none" stroke="#6f9a5a" stroke-width="2"/><g fill="#fff"><circle cy="-8" r="4"/><circle cx="-5" cy="-3" r="4"/><circle cx="5" cy="-3" r="4"/></g><circle cy="-4" r="2.3" fill="#f7df91"/></g><g transform="translate(500 540)"><path d="M0 12V-4M0 8q-9-8-12-2M0 6q8-7 11-2" fill="none" stroke="#6f9a5a" stroke-width="2"/><g fill="#fff"><circle cy="-8" r="4"/><circle cx="-5" cy="-3" r="4"/><circle cx="5" cy="-3" r="4"/></g><circle cy="-4" r="2.3" fill="#f7df91"/></g><g transform="translate(575 575)"><path d="M0 12V-4M0 8q-9-8-12-2M0 6q8-7 11-2" fill="none" stroke="#6f9a5a" stroke-width="2"/><g fill="#f7c3d2"><circle cy="-8" r="4"/><circle cx="-5" cy="-3" r="4"/><circle cx="5" cy="-3" r="4"/></g><circle cy="-4" r="2.3" fill="#f7df91"/></g><g transform="translate(130 590)"><path d="M0 12V-4M0 8q-9-8-12-2M0 6q8-7 11-2" fill="none" stroke="#6f9a5a" stroke-width="2"/><g fill="#f7c3d2"><circle cy="-8" r="4"/><circle cx="-5" cy="-3" r="4"/><circle cx="5" cy="-3" r="4"/></g><circle cy="-4" r="2.3" fill="#f7df91"/></g><g transform="translate(440 590)"><path d="M0 12V-4M0 8q-9-8-12-2M0 6q8-7 11-2" fill="none" stroke="#6f9a5a" stroke-width="2"/><g fill="#fbe3a8"><circle cy="-8" r="4"/><circle cx="-5" cy="-3" r="4"/><circle cx="5" cy="-3" r="4"/></g><circle cy="-4" r="2.3" fill="#f7df91"/></g></svg>